<svg width="5418" height="5418" viewBox="0 0 5418 5418" fill="none" xmlns="http://www.w3.org/2000/svg">
<path d="M2724.24 1151.7C2735.89 1157.25 2766.72 1157.2 2780.91 1158.63C2853.72 1165.95 2928.62 1181.54 2999.55 1199.42C3020.98 1208.11 3054.56 1218.1 3078.36 1227.06C3144.07 1251.15 3206.97 1282.3 3265.96 1319.97C3513.15 1479.11 3628.53 1709.17 3704.58 1985.12C3743.7 2128.13 3779.66 2288.82 3848.34 2421.28C3998.65 2711.2 4191.6 2922.68 4263.06 3252.64C4328.35 3544.98 4272.71 3851.31 4108.78 4102.02C3894.82 4433.09 3541.41 4640.19 3160.1 4720.32C2662.51 4824.91 2066.49 4773.3 1631.72 4493.31C1358.15 4317.13 1148.6 4041.32 1081.73 3721.5C1012.5 3390.35 1104.93 3062.2 1281.21 2780.73C1370.08 2641.1 1466.39 2505.47 1526.44 2349.97C1544.75 2300.59 1566.16 2248.37 1579.39 2197.37C1634.14 1986.26 1674.84 1788.03 1796.17 1601.8C1920.91 1410 2110.22 1269.23 2329.8 1204.97C2399.89 1184.08 2446.73 1178.84 2514.96 1164.49C2554.61 1160.92 2594.35 1158.33 2634.12 1156.72C2652.56 1156.01 2709.22 1155.17 2724.24 1151.7Z" fill="#518E22"/>
<path d="M2651.45 1321.36L2653.91 1321.31C2893.01 1317.37 3130.93 1386.18 3307.43 1554.73C3565.2 1800.89 3558.98 2136.41 3695.32 2444.19C3761.49 2593.56 3851.55 2737.56 3938.58 2875.81C4208.1 3303.88 4209.5 3815.31 3839.78 4187.39C3538.67 4490.43 3117.46 4599.02 2698.51 4603.77C2295.58 4605.29 1856.88 4512.63 1554.3 4229.73C1359.02 4047.15 1226.78 3802.75 1217.98 3532.78C1210.23 3295.06 1296.47 3055.79 1419.25 2855.7C1513.02 2702.89 1588.44 2592.25 1659.19 2426.63C1786.37 2128.93 1772.65 1825.62 2010.54 1581.6C2193.03 1394.4 2399.21 1329.15 2651.45 1321.36Z" fill="#97C536"/>
<path d="M2615.28 1458.82C2822.67 1443.03 3057.09 1509.13 3209.01 1653.2C3387.38 1822.34 3436.87 2046.33 3504.62 2272.43C3532.09 2364.77 3564.53 2455.56 3601.82 2544.39C3648.4 2652.61 3723.47 2777.45 3787.17 2877.52C4029.64 3258.42 4090.06 3717.73 3755.68 4070.21C3488.37 4352 3122.39 4449.44 2741.41 4460.81C2374.15 4473.19 1943.98 4388.94 1658.63 4141.74C1489.23 3994.97 1376.37 3776.47 1361.97 3551.97C1345.82 3300.28 1450.96 3053.35 1575.58 2840.23C1637.55 2734.24 1711.6 2621.22 1757.58 2507.47C1785.54 2438.62 1809.99 2368.39 1830.84 2297.06C1892.75 2084.12 1932.2 1872.93 2084.68 1699.93C2227.28 1538.14 2404.59 1471.02 2615.28 1458.82Z" fill="#C1D952"/>
<path d="M3142.26 2669.95C3387.49 2639.92 3434.7 3088.51 3188.43 3137.22C2952.64 3166.24 2895.18 2723.34 3142.26 2669.95Z" fill="#2C3F22"/>
<path d="M3203.83 2754.17C3212.46 2753.67 3222.02 2753.66 3230.25 2756.4C3245.93 2761.62 3258.9 2772.87 3266.27 2787.67C3274.18 2803.9 3275.29 2822.62 3269.34 2839.67C3261.32 2862.19 3247.97 2871.76 3227.23 2881.01C3219.52 2881.14 3211.09 2881.47 3203.68 2879.27C3188.01 2874.47 3174.92 2863.61 3167.31 2849.1C3146.7 2809.91 3166.21 2772.36 3203.83 2754.17Z" fill="#F1F3ED"/>
<path d="M2199.67 2669.99C2437.31 2653.34 2477.04 3095.3 2232.47 3138.62C2000.07 3162.88 1945.25 2711.78 2199.67 2669.99Z" fill="#2C3F22"/>
<path d="M2251.8 2754.36C2262.62 2753.99 2271.04 2753.75 2281.24 2757.85C2296.41 2763.95 2308.5 2775.9 2314.78 2790.99C2321.89 2808.07 2321.83 2827.29 2314.62 2844.33C2306.23 2863.91 2293.86 2872.96 2275.05 2880.8C2248.81 2881.53 2228.62 2874.54 2215.44 2849.91C2206.75 2833.46 2205.13 2814.18 2210.96 2796.52C2218.65 2773.64 2231.32 2764.41 2251.8 2754.36Z" fill="#F1F3ED"/>
<path d="M3525.08 3136.91C3633.54 3130.41 3726.75 3213.02 3733.32 3321.48C3739.89 3429.94 3657.33 3523.19 3548.88 3529.82C3440.34 3536.46 3346.98 3453.82 3340.41 3345.27C3333.83 3236.73 3416.53 3143.43 3525.08 3136.91Z" fill="#97C536"/>
<path d="M1783.81 3142.3C1890.14 3123.01 1991.92 3193.69 2011.01 3300.05C2030.1 3406.4 1959.24 3508.06 1852.85 3526.95C1746.73 3545.8 1645.4 3475.16 1626.36 3369.08C1607.32 3263 1677.77 3161.53 1783.81 3142.3Z" fill="#97C536"/>
<path d="M2883.34 3233.29C2914.55 3235.53 2933.99 3252.14 2939.15 3283.67C2946.44 3328.24 2913.36 3370.77 2883.09 3399.68C2796.31 3482.55 2657.6 3500.03 2551.59 3445.43C2516.35 3427.36 2494.82 3408 2468.3 3379.25C2452.44 3360.33 2434.12 3333.98 2429.83 3309.47C2419.14 3248.34 2490.18 3205.83 2531.55 3259.3C2537.93 3269.21 2543.54 3280.11 2550.39 3289.67C2591.2 3346.23 2655.89 3368.5 2723.36 3355.22C2781.04 3343.87 2807.35 3310.91 2836.02 3264.25C2848.69 3243.63 2860.02 3237.39 2883.34 3233.29Z" fill="#2C3F22"/>
<path d="M2723.14 1117L2726.25 1123.26C2733.37 1108.04 2737.89 1075.92 2742.76 1058.15C2749.16 1034.84 2755.95 1015.84 2765.34 993.452C2844.61 804.256 2997.06 666.98 3189.29 597.398C3356.1 537.022 3564.27 521.771 3728.58 598.546C3746.59 606.964 3768.84 619.832 3784.31 632.345C3760.68 790.267 3628.79 953.526 3503.35 1046.21C3393.25 1127.46 3263.57 1178.06 3127.55 1192.84C3082.24 1197.54 3040.69 1195.66 2999.55 1199.42C2928.62 1181.54 2853.72 1165.95 2780.91 1158.63C2766.72 1157.2 2735.89 1157.25 2724.23 1151.7L2725.15 1147.36L2723.56 1143.34L2723.14 1117Z" fill="#65AE1E"/>
<path d="M2723.56 1143.34C2755.37 1114.26 2775.81 1080.3 2812.48 1048.9C2985.52 900.732 3208.82 814.044 3429.49 767.034C3457.99 761.065 3512.7 757.192 3542.99 754.711C3352.57 882.082 3145.32 965.061 2937.01 1058.75C2894.94 1077.67 2762.71 1144.36 2725.15 1147.36L2723.56 1143.34Z" fill="#518E22"/>
<path d="M2514.96 1164.49C2495.95 1051.33 2466.59 973.564 2411.62 872.632C2393.45 833.383 2333.3 768.574 2325.91 728.611C2315.31 671.335 2439.43 621.007 2481.47 615.102C2556.82 604.51 2575.5 642.711 2604.39 700.097C2668.95 828.293 2709.9 974.527 2723.14 1117L2723.56 1143.34L2725.15 1147.36L2724.24 1151.7C2709.22 1155.17 2652.56 1156.01 2634.12 1156.72C2594.35 1158.33 2554.61 1160.92 2514.96 1164.49Z" fill="#745513"/>
</svg>
