<svg width="5418" height="5418" viewBox="0 0 5418 5418" fill="none" xmlns="http://www.w3.org/2000/svg">
<path d="M2718.69 1233.09C2720.22 1233.38 2721.59 1233.62 2722.76 1233.82C2730.86 1235.18 2738.89 1235.95 2745.35 1236.46C2751.91 1236.98 2758.45 1237.33 2763.25 1237.6C2768.82 1237.91 2771.48 1238.08 2772.9 1238.22L2772.91 1238.23C2838.67 1244.84 2907.61 1258.91 2975.05 1275.75C2987.22 1280.45 3000.89 1285.06 3012.66 1289C3027.47 1293.96 3040.02 1298.11 3050.18 1301.93L3050.5 1302.05L3050.82 1302.17C3111.06 1324.26 3168.73 1352.81 3222.82 1387.34C3444.76 1530.29 3552.3 1736.53 3625.73 2000.13L3627.46 2006.37C3664.93 2143.38 3703.61 2315.94 3777.32 2458.1H3777.32C3853.17 2604.4 3944.52 2739.29 4016.15 2862.22C4090.08 2989.1 4151.66 3116.2 4184.87 3269.58L4184.93 3269.83L4184.98 3270.08C4245.57 3541.35 4193.94 3825.6 4041.83 4058.24L4041.71 4058.41L4041.59 4058.59C3841.44 4368.3 3508.46 4565.37 3143.65 4642.04H3143.65C2660.41 4743.6 2087.38 4691.6 1675.03 4426.05C1417.98 4260.51 1223.48 4003.27 1160.77 3708.59L1160.04 3705.12C1096.15 3399.54 1180.44 3092.48 1348.82 2823.49C1434.57 2688.77 1537.34 2543.81 1601.07 2378.79L1601.26 2378.29L1601.45 2377.79C1618.37 2332.15 1642.25 2273.64 1656.83 2217.45C1713.03 2000.75 1750.71 1818.11 1863.2 1645.48L1863.22 1645.45L1863.24 1645.42C1977.55 1469.65 2151.04 1340.64 2352.27 1281.75L2352.64 1281.63C2417.34 1262.36 2454.43 1258.78 2526.7 1243.76C2563.47 1240.52 2600.32 1238.15 2637.2 1236.66L2637.2 1236.66C2641.28 1236.5 2647.61 1236.33 2656.15 1236.09C2664.35 1235.86 2674 1235.57 2683.65 1235.18C2692.68 1234.82 2705.94 1234.28 2718.69 1233.09Z" stroke="black" stroke-width="160"/>
<path d="M2655 1386.3C2881.57 1382.58 3101.36 1447.81 3262.54 1601.74L3262.54 1601.74C3379.75 1713.67 3438.46 1846.81 3484.85 1995.69C3529.85 2140.1 3565.85 2312.4 3635.89 2470.52V2470.52C3704.27 2624.89 3796.91 2772.78 3883.58 2910.44H3883.58C4140.44 3318.41 4137.78 3795.26 3793.67 4141.58C3509.18 4427.88 3107.6 4534.09 2698.03 4538.78C2304.26 4540.22 1887.11 4449.55 1602.04 4185.37L1598.69 4182.25C1413.44 4009.05 1291.08 3780.14 1282.95 3530.67V3530.66L1282.87 3528.07C1276.36 3307.66 1356.69 3081.93 1474.65 2889.69L1474.65 2889.69C1566.9 2739.35 1645.82 2623.39 1718.96 2452.16L1718.96 2452.16C1784.46 2298.84 1815.91 2137.66 1855.71 2002.32C1896.62 1863.16 1948.83 1738.01 2057.08 1626.97C2224.85 1454.88 2413.21 1393.78 2653.22 1386.33L2655 1386.3Z" stroke="black" stroke-opacity="0.5" stroke-width="130"/>
<path d="M3142.26 2669.95C3387.49 2639.92 3434.7 3088.51 3188.43 3137.22C2952.64 3166.24 2895.18 2723.34 3142.26 2669.95Z" fill="black"/>
<path d="M3203.83 2754.17C3212.46 2753.67 3222.02 2753.66 3230.25 2756.4C3245.93 2761.62 3258.9 2772.87 3266.27 2787.67C3274.18 2803.9 3275.29 2822.62 3269.34 2839.67C3261.32 2862.19 3247.97 2871.76 3227.23 2881.01C3219.52 2881.14 3211.09 2881.47 3203.68 2879.27C3188.01 2874.47 3174.92 2863.61 3167.31 2849.1C3146.7 2809.91 3166.21 2772.36 3203.83 2754.17Z" fill="#F1F3ED"/>
<path d="M2199.67 2669.99C2437.31 2653.34 2477.04 3095.3 2232.47 3138.62C2000.07 3162.88 1945.25 2711.78 2199.67 2669.99Z" fill="black"/>
<path d="M2251.8 2754.36C2262.62 2753.99 2271.04 2753.75 2281.24 2757.85C2296.41 2763.95 2308.5 2775.9 2314.78 2790.99C2321.89 2808.07 2321.83 2827.29 2314.62 2844.33C2306.23 2863.91 2293.86 2872.96 2275.05 2880.8C2248.81 2881.53 2228.62 2874.54 2215.44 2849.91C2206.75 2833.46 2205.13 2814.18 2210.96 2796.52C2218.65 2773.64 2231.32 2764.41 2251.8 2754.36Z" fill="#F1F3ED"/>
<path d="M3525.08 3136.91C3633.54 3130.41 3726.75 3213.03 3733.32 3321.48C3739.89 3429.94 3657.33 3523.2 3548.88 3529.83C3440.34 3536.47 3346.98 3453.82 3340.41 3345.27C3333.83 3236.73 3416.53 3143.43 3525.08 3136.91Z" fill="black"/>
<path d="M1783.81 3142.3C1890.14 3123.01 1991.92 3193.69 2011.01 3300.05C2030.1 3406.4 1959.24 3508.06 1852.85 3526.95C1746.73 3545.8 1645.4 3475.16 1626.36 3369.08C1607.32 3263 1677.77 3161.53 1783.81 3142.3Z" fill="black"/>
<path d="M2883.34 3233.29C2914.55 3235.53 2933.99 3252.14 2939.15 3283.67C2946.44 3328.24 2913.36 3370.77 2883.09 3399.68C2796.31 3482.55 2657.6 3500.03 2551.59 3445.43C2516.35 3427.36 2494.82 3408 2468.3 3379.25C2452.44 3360.33 2434.12 3333.98 2429.83 3309.47C2419.14 3248.34 2490.18 3205.83 2531.55 3259.3C2537.93 3269.21 2543.54 3280.11 2550.39 3289.67C2591.2 3346.23 2655.89 3368.5 2723.36 3355.22C2781.04 3343.87 2807.35 3310.91 2836.02 3264.25C2848.69 3243.63 2860.02 3237.39 2883.34 3233.29Z" fill="#D9D9D9"/>
<path d="M2723.14 1117L2726.25 1123.26C2733.37 1108.04 2737.89 1075.92 2742.76 1058.15C2749.16 1034.84 2755.95 1015.84 2765.34 993.453C2844.61 804.257 2997.06 666.981 3189.29 597.399C3356.1 537.023 3564.27 521.772 3728.58 598.547C3746.59 606.965 3768.84 619.833 3784.31 632.346C3760.68 790.268 3628.79 953.527 3503.35 1046.22C3393.25 1127.46 3263.57 1178.06 3127.55 1192.84C3082.24 1197.54 3040.69 1195.67 2999.55 1199.42C2928.62 1181.54 2853.72 1165.95 2780.91 1158.63C2766.72 1157.2 2735.89 1157.25 2724.23 1151.7L2725.15 1147.36L2723.56 1143.34L2723.14 1117Z" fill="black"/>
<path d="M2723.56 1143.34C2755.37 1114.26 2775.81 1080.3 2812.48 1048.9C2985.52 900.732 3208.82 814.044 3429.49 767.034C3457.99 761.065 3512.7 757.192 3542.99 754.711C3352.57 882.082 3145.32 965.061 2937.01 1058.75C2894.94 1077.67 2762.71 1144.36 2725.15 1147.36L2723.56 1143.34Z" fill="#D9D9D9" fill-opacity="0.5"/>
<path d="M2514.96 1164.49C2495.95 1051.33 2466.59 973.564 2411.62 872.632C2393.45 833.383 2333.3 768.574 2325.91 728.611C2315.31 671.335 2439.43 621.007 2481.47 615.102C2556.82 604.51 2575.5 642.711 2604.39 700.097C2668.95 828.293 2709.9 974.527 2723.14 1117L2723.56 1143.34L2725.15 1147.36L2724.24 1151.7C2709.22 1155.17 2652.56 1156.01 2634.12 1156.72C2594.35 1158.33 2554.61 1160.92 2514.96 1164.49Z" fill="black"/>
</svg>
