<?xml version="1.0" encoding="utf-8" ?><svg xmlns="http://www.w3.org/2000/svg" xmlns:xlink="http://www.w3.org/1999/xlink" width="512" height="512" viewBox="0 0 512 512"><path d="M266.987 0L271.763 0C278.023 3.31838 278.951 5.30081 279.008 12.354C279.03 15.0499 279.012 17.8957 279.01 20.6023L278.992 46.2953C278.989 49.9849 278.797 57.0743 279.181 60.4677C288.807 45.7748 300.411 32.4779 313.666 20.9519C316.35 18.623 320.181 14.9287 323.678 14.2851C326.29 13.8222 328.977 14.4512 331.112 16.0252C333.076 17.4762 334.383 19.6481 334.746 22.063C335.244 25.4119 330.708 40.5444 329.621 44.6001L320.355 79.1648C318.992 84.253 316.62 92.1848 315.617 97.1832C318.346 94.6287 320.962 91.8984 323.733 89.4222C337.258 77.1836 352.389 66.8472 368.708 58.6989C372.008 57.0642 377.513 54.0907 381.089 54.2819C383.615 54.4317 385.979 55.5774 387.661 57.4677C389.297 59.3026 390.102 61.7313 389.887 64.1799C389.768 65.5584 389.406 66.905 388.818 68.1573C387.37 71.2971 383.704 77.0434 381.833 80.2861L364.459 110.42C362.362 114.05 357.364 122.189 355.69 125.786C361.672 122.492 366.374 119.725 372.607 116.671C387.673 109.337 403.598 103.918 420.011 100.543C424.125 99.696 429.44 98.3033 433.529 99.3613C435.845 99.9608 438.596 102.564 439.354 104.827C440.765 109.041 439.577 112.472 436.603 115.537C433.66 118.571 430.705 121.484 427.73 124.442L412.255 139.883C399.067 153.099 385.517 167.031 372.159 179.992C375.646 179.542 379.022 178.919 382.55 178.439C416.936 173.763 452.64 177.072 485.113 189.556C488.606 190.899 491.51 193.576 491.747 197.379C492.234 202.313 489.824 206.151 485.099 207.72C481.336 208.969 477.44 209.93 473.586 210.962L453.959 216.225L427.541 223.277C422.265 224.684 416.43 226.387 411.128 227.476L411.506 227.617C414.06 228.551 417.575 229.282 420.309 229.963C424.022 230.908 427.711 231.942 431.375 233.063C449.417 238.663 466.606 246.713 482.46 256.987C485.894 259.238 491.352 262.438 493.45 266.06C495.905 270.296 493.329 277.372 488.464 279.033C482.632 280.472 473.652 279.845 467.413 279.828L439.706 279.845L414.903 279.832C411.203 279.831 407.506 279.877 403.808 279.873C400.287 279.868 396.935 278.003 395.855 274.514C395.262 272.565 395.458 270.46 396.401 268.654C398.842 264.033 404.091 264.599 408.512 264.644C413.45 264.695 418.386 264.705 423.324 264.696L449.624 264.686C455.238 264.685 460.919 264.529 466.514 264.896C459.47 260.393 448.993 255.557 441.242 252.487C401.674 237.163 358.46 233.872 317.027 243.027C313.302 243.843 309.704 244.691 305.884 245.737C303.709 246.333 297.708 247.353 299.135 251.141C299.419 251.896 303.982 253.893 304.65 254.919C308.391 258.098 309.906 260.33 312.349 264.496C317.422 264.837 323.207 264.686 328.366 264.686L353.632 264.686C358.715 264.68 364.556 264.416 369.571 265.008C371.046 265.182 372.464 266.046 373.471 267.149C374.817 268.598 375.529 270.524 375.449 272.5C375.333 274.636 374.328 276.627 372.676 277.987C369.726 280.433 364.508 279.85 360.829 279.844L348.35 279.835L323.582 279.842C320.631 279.851 317.543 280.016 314.638 279.972C313.93 283.972 312.856 286.894 310.927 290.451C316.363 296.453 319.393 302.86 319.013 311.139C318.719 318.451 315.467 325.33 310.003 330.198C306.062 333.762 302.359 335.326 297.407 337.035C301.901 370.917 307.187 405.242 312.072 439.125L316.199 467.718C316.88 472.393 318.064 478.233 318.192 482.64C318.511 493.668 309.223 496.583 300.08 495.954C294.609 495.578 286.764 497.273 285.579 489.293C285.447 488.131 285.815 486.051 286.246 484.983C288.482 479.447 297.942 480.641 302.879 480.875C301.462 472.93 300.362 463.207 299.185 455.082C293.335 454.324 288.688 448.697 284.215 444.583C282.54 445.988 279.921 448.111 278.512 449.645C268.355 460.706 264.495 451.302 255.899 444.549C251.438 448.659 245.18 456.728 238.728 454.093L238.396 453.96C238.331 453.932 238.265 453.904 238.2 453.875C236.954 463.943 232.781 472.47 227.415 480.866C233.774 480.754 240.135 480.713 246.495 480.741C250.427 480.736 256.709 480.341 260.344 481.258C265.808 482.635 267.094 490.168 262.892 493.892C262.033 494.668 260.997 495.221 259.875 495.504C257.176 496.171 244.985 495.919 241.383 495.915L222.656 495.895C220.368 495.894 214.727 495.802 212.68 496.18C211.275 496.439 206.003 499.942 204.152 500.866C194.08 505.897 182.808 508.092 171.6 507.286C164.291 506.76 158.689 505.243 151.938 502.711C150.471 508.193 149.304 509.466 144.276 512L139.77 512C133.412 508.567 132.938 506.719 131.382 499.902C129.412 491.276 124.235 486.559 115.762 484.645C113.521 484.139 110.621 483.209 108.597 482.069C103.551 479.264 102.908 473.004 105.841 468.394C107.915 465.135 112.198 464.373 115.812 463.701C112.97 451.42 111.698 442.42 114.818 429.673C115.899 425.279 117.449 421.014 119.441 416.951C121.859 412.078 125.508 406.114 128.261 401.335L143.54 374.824L158.754 348.4C161.483 343.652 164.181 339.049 167.022 334.205C170.725 327.89 179.017 327.122 183.887 332.581C185.446 334.329 187.049 337.52 188.281 339.657L194.284 350.088C198.643 357.668 205.024 367.988 208.883 375.588C209.748 372.343 210.889 363.411 211.35 359.855C212.315 352.405 213.816 344.224 214.557 336.833C210.119 335.836 205.394 333.369 202.012 330.328C196.593 325.543 193.347 318.763 193.017 311.541C192.603 302.924 195.374 296.763 201.011 290.489C198.801 286.321 198.334 284.499 197.307 279.946C182.337 279.796 167.366 279.757 152.395 279.829L75.391 279.834L44.3775 279.855C38.8844 279.865 33.4678 279.829 27.8161 279.831C20.0516 279.833 15.0022 272.348 18.8964 265.456C20.6465 262.359 26.7485 258.69 29.9256 256.631C45.7462 246.407 62.9183 238.446 80.9434 232.977C87.8891 230.873 94.3745 229.552 101.027 227.603C96.7412 226.248 89.9208 224.716 85.3045 223.468L46.0841 212.969C39.23 211.141 32.1166 209.48 25.4401 207.143C18.9473 204.643 18.2585 194.559 23.9886 191.023C27.9664 188.569 34.886 186.637 39.443 185.224C72.2903 175.033 106.185 174.343 139.899 180.035C136.926 177.168 128.185 169.321 127.11 165.978C126.464 164.012 126.689 161.864 127.727 160.074C128.751 158.295 130.347 157.007 132.354 156.518C133.981 156.122 135.694 156.302 137.202 157.029C139.852 158.301 146.124 165.043 148.638 167.57L160.859 179.876C162.202 181.228 166.435 185.78 167.716 186.395C173.385 189.118 181.094 191.291 186.892 193.7C199.067 198.714 210.805 204.729 221.986 211.685C194.313 165.733 150.185 132.038 98.5668 117.447C103.019 122.185 107.861 126.825 112.658 131.562C116.899 135.751 119.565 141.64 112.915 145.686C107.715 148.851 103.472 143.735 100.008 140.249L91.7486 132.007C86.1123 126.388 80.0439 120.888 74.7593 114.95C73.9949 114.091 73.2391 113.157 72.7552 112.108C71.6556 109.723 71.8546 106.9 72.8382 104.514C73.7914 102.201 75.4954 100.402 77.8544 99.4986C84.5961 96.9166 111.358 105.406 118.748 108.052C124.687 110.193 130.529 112.591 136.259 115.239C143.399 118.512 149.827 122.6 156.333 125.642C150.647 116.686 144.352 105.009 138.931 95.6279L128.693 77.9073C126.815 74.6583 122.749 68.5469 122.064 65.047C121.108 60.1709 125.308 54.2931 130.68 54.347C135.425 54.3945 139.454 57.013 143.68 58.9785C163.627 68.7055 180.404 81.9125 196.396 97.1255L183.444 48.6873C181.433 41.1986 179.405 33.8445 177.491 26.226C175.702 19.1086 181.454 12.5367 188.809 14.466C192.205 15.3569 196.016 19.0872 198.698 21.3953C212.015 32.8576 223.007 46.1717 233.013 60.5489C235.042 55.7117 237.312 48.7599 239.4 43.6352C243.035 34.7099 257.887 5.15121 265.405 0.890528L266.987 0ZM129.439 454.309C129.966 452.722 131.829 447.388 131.969 445.953C133.012 435.205 147.012 432.11 150.937 442.243C153.863 449.799 154.072 458.556 163.566 461.845C168.607 463.862 177.206 464.695 179.279 470.19C181.684 476.566 177.99 482.022 171.74 483.677C168.907 484.417 161.081 486.472 159.419 488.645L159.448 489.146C161.115 490.576 169.093 491.866 171.517 492.102C187.691 493.677 202.588 487.225 212.987 474.855C220.931 465.273 224.813 452.965 223.806 440.559C223.371 435.14 221.984 429.839 219.707 424.901C217.937 421.003 215.184 416.482 213.013 412.713L202.57 394.6L186.426 366.588C185.021 364.142 177.361 350.162 175.851 348.91C166.447 364.607 157.249 381.113 148.081 397.001L138.93 412.837C135.862 418.152 132.646 423.352 130.645 429.175C128.341 435.882 127.184 445.47 128.929 452.419C129.091 453.051 129.261 453.681 129.439 454.309ZM45.5964 264.755L118.875 264.68L173.157 264.679L189.927 264.688C192.798 264.691 196.83 264.814 199.634 264.609C201.84 260.274 204.602 256.746 208.523 253.87C210.465 252.22 213.528 252.181 212.9 248.853C212.773 248.176 211.955 247.58 211.353 247.347C208.553 246.262 205.316 245.523 202.418 244.766C182.43 239.633 161.809 237.392 141.185 238.114C108.01 239.355 74.2892 247.778 45.5964 264.755ZM188.479 226.32C198.14 227.863 208.223 230.68 217.61 233.307C218.591 231.33 219.336 230.671 220.71 228.98C188.791 207.173 151.581 194.38 113 191.951C105.884 191.497 96.6115 191.649 89.4767 191.862C78.2565 192.366 67.1044 193.878 56.1552 196.38C54.6622 196.72 51.9266 197.209 50.698 197.781L50.4502 198.2C51.2493 199.06 66.5149 202.826 68.8413 203.451L111.276 214.824L130.278 219.914C133.354 220.744 140.529 222.886 143.433 222.933C147.672 223.002 152.109 222.873 156.428 223.01C167.175 223.372 177.885 224.479 188.479 226.32ZM291.168 229.011C292.362 230.379 293.54 231.761 294.701 233.157C299.917 232.07 306.196 229.992 311.749 228.688C322.167 226.322 332.733 224.663 343.375 223.725C349.008 223.081 355.054 223.093 360.714 222.932C363.282 222.859 368.724 223.147 371 222.63C378.265 220.982 385.785 218.835 393.01 216.894L435.608 205.467C443.952 203.212 454.674 200.02 462.987 198.423C458.381 196.75 453.75 195.83 448.955 194.875C432.775 191.652 417.761 191.42 401.333 191.883C395.167 192.084 387.532 192.993 381.433 193.884C349.047 198.51 318.162 210.53 291.168 229.011ZM267.255 221.56C268.59 219.731 273.065 210.784 274.638 208.034C279.217 200.177 284.242 192.588 289.687 185.305C298.589 173.332 309.151 161.983 320.232 151.976C322.051 150.334 324.253 148.775 325.844 146.882C327.4 144.816 329.229 141.446 330.557 139.147L338.947 124.618C347.843 109.211 357.289 93.3608 365.918 77.8542L365.815 77.5317L365.55 77.4442C317.275 106.504 282.613 153.648 269.271 208.392C268.889 209.936 266.371 220.083 266.815 221.169L267.255 221.56ZM245.313 221.397C245.01 216.454 241.749 204.446 240.336 199.621C229.457 162.454 206.892 125.977 177.763 100.269C169.298 92.701 160.188 85.8861 150.538 79.9017C149.514 79.28 146.906 77.6593 145.924 77.3861C148.568 82.4278 151.838 87.8884 154.694 92.8393L169.412 118.299L179.768 136.287C180.906 138.262 184.198 144.622 185.535 146.094C190.066 151.081 196.557 156.338 201.361 161.19C213.315 173.245 223.933 186.555 233.028 200.89C235.658 205.092 238.158 209.375 240.525 213.731C241.479 215.483 243.745 220.705 245.313 221.397ZM256.214 198.877C257.045 190.32 256.433 175.841 255.56 167.326C251.56 125.633 235.359 86.0444 208.982 53.5091C207.345 51.5181 199.203 41.867 197.055 40.6366C197.273 42.8736 199.275 49.6877 199.96 52.2067L205.623 73.3224L214.213 105.419C215.688 110.961 217.215 117.059 218.904 122.515C219.518 124.497 223.721 130.16 225.129 132.25C227.58 135.92 229.932 139.657 232.181 143.455C241.879 159.741 249.52 177.532 254.835 195.711C255.118 196.679 255.393 198.315 256.214 198.877ZM290.915 211.206C301.921 204.208 313.563 198.261 325.684 193.445C329.141 192.062 332.629 190.759 336.146 189.538C337.071 189.22 342.78 187.369 343.246 187.015C347.984 183.425 353.878 176.989 358.146 172.692L376.301 154.557L400.925 129.934C404.314 126.546 409.502 121.734 412.548 118.352L412.612 117.867L412.272 117.77C405.005 119.993 399.396 121.614 392.25 124.456C358.718 138.043 329.209 159.966 306.519 188.147C302.238 193.421 298.207 198.892 294.437 204.543C293.569 205.845 290.953 209.664 290.539 211.02L290.915 211.206ZM269.278 156.059C269.594 158.139 269.88 159.726 270.356 161.771C273.972 152.541 280.642 142.078 285.883 133.614C287.847 130.442 291.26 126.374 292.747 123.275C293.656 121.379 294.914 116.129 295.524 113.837L299.938 97.2339C304.748 79.1979 309.609 61.1475 314.493 43.1317C314.681 42.4403 315.015 41.4545 314.772 40.8351L314.658 40.7136C293.438 60.7028 270.863 99.0771 264.107 128.985C263.785 130.412 266.039 137.182 266.181 138.876C267.305 144.413 268.656 150.434 269.278 156.059ZM238.217 433.57C239.372 434.629 240.676 435.901 241.929 436.791C245.468 433.814 251.897 426.321 256.312 426.737C260.847 427.164 266.329 434.017 270.178 436.898C282.157 425.488 283.477 422.728 295.61 434.294C295.739 434.21 295.869 434.125 295.998 434.041C296.082 433.193 296.049 433.092 295.953 432.273C295.175 427.281 294.445 422.281 293.764 417.274C293.355 414.388 292.979 410.919 292.253 408.174C290.256 406.175 288.289 404.532 286.256 402.633C285.285 403.451 283.457 404.91 282.651 405.766C268.58 420.689 267.932 412.018 255.732 402.612C252.22 405.961 245.39 413.647 240.63 413.778C235.202 413.928 228.889 403.546 224.888 402.81C226.534 406.621 230.39 412.462 232.48 416.637C235.958 423.585 236.171 427.052 238.217 433.57ZM222.751 264.043C216.026 264.995 211.345 271.217 212.295 277.942C213.244 284.667 219.464 289.35 226.189 288.404C232.919 287.457 237.606 281.232 236.656 274.503C235.706 267.774 229.479 263.09 222.751 264.043ZM261.386 287.241C264.618 285.427 266.868 283.08 267.871 279.383C268.746 276.13 268.248 272.66 266.494 269.783C264.84 267.027 262.131 265.065 258.996 264.354C257.154 263.933 256.114 263.982 254.29 264.097C252.485 264.481 251.648 264.675 249.919 265.305C252.225 273.728 252.821 278.641 249.707 287.035C253.392 288.408 257.044 289.301 260.856 287.508C261.035 287.423 261.211 287.334 261.386 287.241ZM281.156 286.921C284.608 288.391 287.969 289.214 291.674 287.779C291.996 287.651 292.313 287.512 292.625 287.36C295.661 285.863 298.022 283.429 299.131 280.184C300.198 276.984 299.927 273.488 298.381 270.49C296.894 267.621 294.307 265.478 291.21 264.552C289.186 263.95 287.789 263.972 285.741 264.089C284.057 264.5 282.918 264.787 281.294 265.375C283.76 272.836 284.294 279.51 281.156 286.921ZM265.657 237.426C267.403 243.884 267.601 244.767 267.553 251.383C268.87 252.089 270.436 252.984 271.761 253.615L276.236 251.199C279.268 250.067 281.012 249.526 284.202 249.024C283.286 240.954 279.932 236.69 271.516 236.102C269.108 236.34 267.97 236.532 265.657 237.426ZM227.761 248.891C230.728 249.544 232.771 250.189 235.581 251.323C238.585 252.537 239.575 254.353 242.321 252.491C246.094 250.364 248.439 249.831 252.719 248.963C251.603 240.22 247.192 235.272 237.92 236.312C230.879 237.691 228.551 242.466 227.761 248.891ZM239.869 298.979C238.312 299.812 236.761 300.656 235.215 301.51C234.473 303.499 233.656 309.817 233.422 312.191C235.411 314.083 239.869 318.301 241.918 319.819C255.38 308.059 254.317 305.182 268.399 318.454C269.398 319.242 269.211 319.334 270.303 319.519C271.445 318.779 278.125 312.892 278.286 311.798C278.528 310.149 277.399 303.4 276.948 301.572C275.189 300.649 273.443 299.701 271.711 298.729C269.233 300.163 267.213 301.305 264.489 302.271C256.557 305.086 247.869 303.511 240.83 299.126C240.62 298.996 240.138 298.974 239.869 298.979ZM255.977 104.736C257.374 101.403 258.793 98.0778 260.234 94.7626C261.43 92.0781 263.081 89.232 263.712 86.3505C264.334 83.5128 264.159 29.8576 263.869 29.1422C263.806 28.9853 263.705 28.8462 263.624 28.6982C256.267 40.7212 250.462 55.2252 246.29 68.6559C245.537 71.0772 244.027 76.1665 243.781 78.5198C246.987 84.3181 249.889 90.2791 252.475 96.3787C253.696 99.1419 254.864 101.928 255.977 104.736ZM297.468 320.705C303.911 317.222 305.54 309.799 302.303 303.493C301.748 302.411 300.823 301.533 299.741 300.994L299.136 301.024C296.739 301.955 294.966 302.643 292.467 303.237C292.841 305.723 294.733 320.482 295.475 321.44C296.378 321.349 296.674 321.122 297.468 320.705ZM129.907 474.017C133.068 476.001 135.608 477.772 138.144 480.554C139.224 481.739 141.273 485.127 142.286 485.826C145.813 480.079 148.275 477.646 153.93 474.16C151.196 472.01 148.569 470.322 146.183 467.695C145.089 466.491 142.847 462.796 141.773 462.346C138.384 467.697 135.383 470.724 129.907 474.017ZM241.912 358.812C246.467 354.983 250.884 348.745 256.611 348.833C261.739 349.761 265.853 355.577 270.17 358.89C273.894 355.392 278.664 349.626 283.802 348.782L281.191 330.313C277.815 333.249 273.929 337.963 269.449 337.81C264.62 337.646 258.157 327.686 255.485 327.908C253.539 329.709 250.938 331.921 249.139 333.757C240.817 342.251 237.564 335.688 230.786 330.334C229.981 336.15 229.129 342.915 228.05 348.626C233.845 349.983 237.169 355.169 241.912 358.812ZM211.839 300.883C209.249 303.872 207.74 306.674 208.004 310.817C208.225 314.189 209.844 317.316 212.47 319.443C213.643 320.401 214.793 320.991 216.172 321.588L216.783 321.388C217.231 319.798 217.605 316.509 217.853 314.766L219.528 303.146C216.773 302.713 213.76 301.11 211.839 300.883ZM283.68 385.223C285.861 384.871 286.828 384.869 289.103 385.258C288.396 380.412 287.867 375.373 286.97 370.557C286.606 368.601 285.737 367.788 284.263 366.556C282.978 367.585 280.812 369.347 279.751 370.497C268.294 382.909 265.788 374.405 255.919 366.556C252.353 369.782 246 377.046 241.509 376.732C236.071 376.352 231.327 368.242 227.469 366.649C227.066 367.046 225.891 368.195 225.729 368.639C224.07 373.186 223.634 380.245 222.872 385.123C226.561 384.811 228.481 384.932 231.578 387.535C234.629 390.1 237.667 393.455 240.836 395.835C244.317 392.842 252.103 384.262 256.19 384.708C260.809 385.213 267.186 393.017 271.155 395.894C273.95 393.294 280.776 386.499 283.68 385.223Z"/><path d="M82.4277 294.349C87.4473 293.634 91.3363 295.167 93.9398 299.589C102.215 313.448 110.042 327.69 118.205 341.601C133.261 367.259 116.809 398.508 87.2539 400.961C79.2143 401.05 73.2017 400.191 65.9614 396.198C56.8182 391.136 50.0573 382.652 47.1626 372.61C44.0035 361.568 45.9096 351.338 51.4508 341.496L68.1308 312.536C70.1455 309.03 72.1616 305.492 74.1888 301.996C76.5047 298.003 77.7255 295.678 82.4277 294.349ZM85.2177 385.88C92.2138 385.446 97.9867 383.232 102.732 377.837C107.009 373.046 109.183 366.74 108.768 360.331C108.626 358.334 107.871 354.548 107.063 352.969C105.023 348.984 85.9646 314.611 84.4408 314.075L84.3046 314.363C82.8919 317.298 80.2948 321.509 78.615 324.409L68.5342 341.835C66.1622 345.943 62.8781 351.057 61.6567 355.533C60.3402 360.227 60.4887 365.212 62.0823 369.82C64.208 375.867 68.6454 380.825 74.4213 383.605C77.8396 385.231 81.4499 385.858 85.2177 385.88Z"/></svg>