<?xml version="1.0" encoding="utf-8" ?><svg xmlns="http://www.w3.org/2000/svg" xmlns:xlink="http://www.w3.org/1999/xlink" width="512" height="512" viewBox="0 0 512 512"><path d="M438.331 406.852C444.621 406.187 450.266 410.728 450.964 417.013C451.663 423.299 447.153 428.968 440.871 429.701C434.541 430.439 428.819 425.887 428.115 419.553C427.411 413.22 431.994 407.522 438.331 406.852Z"/><path d="M398.716 437.376C405.059 436.901 410.582 441.667 411.039 448.011C411.496 454.355 406.715 459.864 400.37 460.303C394.05 460.741 388.568 455.982 388.112 449.664C387.657 443.346 392.399 437.85 398.716 437.376Z"/><path d="M437.45 463.318C441.513 462.568 445.667 464.058 448.326 467.222C450.985 470.385 451.739 474.733 450.301 478.607C448.862 482.481 445.453 485.283 441.374 485.945C435.162 486.952 429.297 482.772 428.222 476.572C427.147 470.372 431.262 464.462 437.45 463.318Z"/><path d="M199.837 0L213.132 0C215.21 0.827613 219.325 1.11126 221.703 1.67769C226.922 2.92091 231.827 4.61433 236.665 6.92879C245.278 11.0183 252.953 16.8467 259.204 24.0471C264.361 29.9546 269.899 37.4475 274.766 43.706L300.291 76.4823L376.57 174.422L402.386 207.533C408.305 215.124 413.872 223.106 420.751 229.816C423.192 232.198 425.591 234.654 428.006 237.065L450.849 259.892C454.906 263.95 459.901 268.596 463.286 273.083C465.632 276.217 467.487 279.689 468.789 283.381C472.165 292.913 471.617 303.396 467.264 312.524C462.552 322.182 450.827 332.36 442.946 340.243L409.387 373.799L379.459 403.754C370.9 412.32 360.99 424.115 349.523 428.037C339.917 431.295 329.416 430.652 320.28 426.247C311.767 422.052 303.603 412.826 296.701 405.923L278.696 387.902C274.476 383.676 270.133 379.18 265.813 375.09C264.298 373.656 260.826 371.128 259.017 369.718L127.926 267.608L87.2241 235.921C80.1923 230.448 69.7888 222.8 63.501 216.968C54.7666 208.979 48.2339 198.878 44.5307 187.635C38.6295 169.753 40.1535 150.25 48.7607 133.501C51.299 128.514 54.4418 123.857 58.1182 119.638C64.4984 112.324 73.1925 104.067 80.2001 97.0689L116.291 60.984L143.887 33.3749C158.145 19.1149 169.764 6.26053 190.386 1.87422C193.168 1.28233 197.318 0.903968 199.837 0ZM312.104 309.453C312.32 309.417 312.535 309.38 312.751 309.343C322.094 299.919 331.476 290.534 340.871 281.162C344.137 277.904 347.372 274.613 350.68 271.398C346.709 266.677 341.971 261.668 337.799 257.071L317.602 234.732L252.915 163.201L210.609 116.401L195.837 100.07C183.577 86.5632 167.825 70.8249 149.281 66.0877C148.151 65.799 146.456 65.84 145.274 65.8419C144.463 66.1411 143.934 66.5205 143.287 67.0922C139.532 70.4112 107.552 102.261 106.788 104.106C105.504 107.209 108.838 114.624 110.199 117.47C114.695 126.872 121.309 135.458 128.458 142.991C133.52 148.325 139.082 153.226 144.539 158.151L164.162 175.863L225.616 231.447L282.971 283.309L301.384 299.969C304.475 302.765 308.886 306.981 312.104 309.453ZM295.676 326.353L174.602 216.775L141.599 186.934C123.593 170.716 105.012 155.377 92.6549 134.227C91.568 132.366 88.1236 124.041 86.8037 123.613C73.9787 136.174 64.5258 145.416 64.2274 165.167C64.1545 177.521 68.9473 189.407 77.5692 198.255C81.879 202.634 90.7818 209.16 95.9028 213.141L126.843 237.227L234.565 321.134C239.077 324.652 270.56 349.526 271.995 349.889L272.547 349.605C279.172 342.601 286.252 335.944 292.997 329.051C293.869 328.16 294.848 327.274 295.676 326.353ZM164.098 46.4644C188.015 55.7491 205.972 76.5364 222.697 95.046L257.782 133.86L324.875 208.046C336.064 220.422 347.928 233.151 358.873 245.661C360.674 247.642 365.7 253.367 367.49 254.775C370.298 251.608 390.41 232.056 390.656 230.84C389.829 228.835 380.253 217.119 378.438 214.79L344.165 170.782L275.434 82.5343L253.751 54.6909C249.941 49.7928 244.977 43.0144 240.941 38.5478C236.358 33.5281 230.73 29.5737 224.453 26.963C218.654 24.5374 211.63 23.1474 205.321 23.6021C186.62 24.8759 176.278 32.483 164.33 46.196L164.098 46.4644ZM289.469 365.679L314.37 390.571C318.751 394.953 326.747 404.023 332.154 406.064C338.462 407.569 343.212 406.763 348.022 402.084C352.001 398.214 355.879 394.222 359.794 390.29L383.899 366.213L424 326.105L436.225 313.897C438.807 311.327 441.524 308.805 443.929 306.068C445.548 304.225 446.687 302.198 447.243 299.802C448.2 295.681 447.629 291.598 445.334 288.029C444.535 286.787 443.572 285.647 442.562 284.572C438.985 280.766 407.481 249.204 406.529 248.93C406.439 248.904 406.343 248.904 406.25 248.892L289.469 365.679Z"/><path d="M397.796 512C394.038 510.498 390.927 509.293 389.151 505.295C387.853 502.374 387.809 498.865 388.986 495.898C390.097 493.133 392.283 490.938 395.044 489.818C398.013 488.63 401.332 488.673 404.27 489.936C407.04 491.101 409.212 493.349 410.282 496.157C411.378 499.032 411.352 502.589 409.999 505.348C408.48 508.442 405.322 510.655 402.105 511.698C401.788 511.8 401.846 511.796 401.498 512L397.796 512Z"/></svg>