<?xml version="1.0" encoding="utf-8" ?><svg xmlns="http://www.w3.org/2000/svg" xmlns:xlink="http://www.w3.org/1999/xlink" width="512" height="512" viewBox="0 0 512 512"><path transform="scale(0.426667 0.426667)" d="M577.276 0L622.59 0C631.922 1.68306 647.672 1.38277 657.563 1.88177C679.412 2.79294 701.219 4.51736 722.94 7.05143C838.467 20.4442 1001.68 60.2974 1075.59 158.812C1097.56 188.096 1108.11 224.544 1102.06 260.737C1099.65 275.206 1095.33 287.73 1088.82 300.913C1086.82 304.958 1080.61 313.246 1080.18 317.037C1079.29 324.86 1079.55 335.09 1079.62 343.033L1079.72 378.809L1079.74 476.652C1079.72 493.008 1079.11 509.67 1080.03 525.936C1080.21 529.149 1085.58 536.771 1087.35 540.081C1107.83 578.404 1109.14 622.549 1088.38 661.079C1086.05 665.416 1081.6 670.879 1080.27 675.657C1079.17 685.656 1079.6 697.366 1079.67 707.428L1079.71 757.772C1079.49 786.459 1079.44 815.147 1079.59 843.835L1079.51 868.379C1079.38 884.371 1078.77 887.944 1088.16 901.474C1090.24 904.483 1092.26 910.68 1094.03 914.011C1113.71 957.875 1102 1008.29 1072.55 1045.31C999.501 1137.16 846.539 1177.01 735.682 1191.36C709.991 1194.56 684.188 1196.79 658.33 1198.05C651.52 1198.4 623.762 1198.91 618.564 1200L580.911 1200C575.403 1199.01 555.394 1198.67 548.869 1198.4C530.626 1197.65 512.407 1196.41 494.232 1194.67C395.073 1185 284.708 1159.37 198.994 1107.16C155.776 1080.83 111.106 1039.74 99.4935 988.825C90.8014 950.71 99.8002 919.859 120.047 887.434C120.342 877.232 120.302 866.526 120.203 856.309C119.618 795.963 121.086 735.297 120.016 674.984C87.4256 622.447 89.3248 579.495 120.062 527.116C120.537 494.16 120.208 460.531 120.201 427.531L120.044 315.573C108.585 298.453 101.602 281.793 97.9116 261.617C91.2915 225.424 102.784 187.226 124.966 158.014C200.359 58.7245 364.17 20.1298 480.472 6.57476C501.074 4.37504 521.74 2.83174 542.439 1.9472C552.365 1.4898 567.85 1.69337 577.276 0ZM167.834 724.913C167.168 739.796 167.534 756.806 167.538 771.898L167.596 850.873L167.62 880.902C167.62 886.191 167.692 892.488 167.322 897.72C166.997 902.307 162.135 908.604 159.742 912.683C149.794 929.64 142.821 945.105 144.201 965.2C145.813 988.676 157.652 1008.83 173.169 1025.9C188.183 1042.41 208.678 1057.54 227.843 1068.9C320.711 1123.95 447.174 1146.43 554.537 1151.1C678.743 1156.5 821.104 1140.15 934.716 1088.75C961.759 1076.52 993.169 1057.68 1014.96 1037.64C1018.04 1034.77 1021.06 1031.84 1024.02 1028.85C1042.68 1008.62 1056.72 986.169 1055.92 957.572C1055.5 942.495 1049.7 929.467 1042.26 916.619C1038.72 910.51 1032.77 902.905 1032.44 896.03C1031.75 881.601 1032.29 866.007 1032.3 851.494L1032.27 769.31C1032.26 755.558 1032.74 738.417 1032.07 724.99C998.499 752.865 956.46 772.263 915.992 787.734C892.727 796.629 868.623 803.439 844.591 809.791C832.76 812.988 822.965 812.913 814.53 802.845C804.171 790.482 809.525 771.192 824.554 765.887C831.244 763.525 839.201 761.812 846.131 759.982C856.046 757.293 865.9 754.385 875.686 751.26C930.029 733.931 991.52 705.601 1030.37 662.297C1034.75 657.411 1038.97 648.994 1042.45 643.467C1060.84 614.256 1060.12 583.136 1041.04 554.488C1037.67 549.417 1032.97 542.412 1032.55 536.137C1032.01 521.981 1032.29 506.954 1032.3 492.76L1032.28 401.887C1032.27 393.861 1032.71 371.643 1031.88 364.896C1015.64 379.069 984.921 397.646 965.28 407.145C834.93 470.186 671.262 486.43 528.461 477.456C422.333 470.787 303.357 446.887 210.617 394.15C195.306 385.444 181.845 375.63 167.994 364.986C167.031 370.73 167.612 395.087 167.615 402.568L167.577 494.57L167.583 522.63C167.593 529.218 168.491 536.423 165.607 542.487C161.802 550.489 156.805 557.538 152.713 565.574C144.172 582.345 141.291 601.024 146.868 619.232C159.746 660.774 192.438 688.092 228.673 709.344C272.268 735.08 320.578 751.641 369.472 764.024C372.978 764.913 377.326 766.34 380.577 768.477C395.21 778.1 393.312 802.801 376.903 809.582C371.043 812.004 364.32 811.903 357.74 810.24C299.826 795.602 242.566 775.197 192.091 742.727C183.959 737.493 174.856 731.432 167.834 724.913ZM605.27 431.963C711.609 430.895 820.989 415.954 919.919 374.578C973.096 352.338 1055.28 305.91 1055.96 239.142C1056.24 211.19 1037.47 184.206 1018.06 165.883C919.582 75.7639 725.019 46.1972 596.885 47.7305C566.488 48.9839 536.353 49.2945 506.028 52.2155C403.019 62.1379 246.194 95.5551 174.177 173.784C156.453 193.038 142.918 216.428 144.067 243.337C145.337 273.091 164.427 298.121 185.687 317.395C281.672 404.415 478.949 433.801 605.27 431.963Z"/><path transform="scale(0.426667 0.426667)" d="M595.798 552.042C609.896 550.933 615.306 556.741 623.747 566.769C632.904 577.647 641.828 588.678 650.714 599.783C666.709 619.88 682.033 640.504 696.659 661.619C726.067 703.892 765.228 764.769 767.512 817.89C769.675 858.84 755.083 898.909 727.093 928.879C695.366 963.258 652.489 981.907 606.006 983.714C528.361 984.734 458.506 940.856 436.953 863.876C419.653 802.091 450.912 742.374 483.168 691.639C510.436 648.75 541.884 607.744 574.548 568.8C581.039 561.082 585.636 554.735 595.798 552.042ZM601.087 936.048C635.321 934.771 667.376 923.199 691.136 897.732C709.33 878.232 720.99 851.064 719.876 824.138C717.713 771.89 652.724 677.271 619.184 636.62C613.416 629.629 607.516 621.347 600.857 615.27C600.34 614.799 600.271 614.77 599.774 614.428C560.308 658.94 523.385 711.408 498.138 765.454C488.875 785.282 478.825 810.036 480.158 832.048C482.104 860.451 495.291 886.906 516.799 905.558C541.445 927.031 568.974 935.259 601.087 936.048Z"/><path transform="scale(0.426667 0.426667)" d="M592.137 682.489C592.294 689.565 584.299 713.109 581.717 721.368C570.246 758.054 552.282 803.076 554.61 841.883C555.473 856.268 563.905 883.292 568.111 897.253C560.43 894.24 554.185 890.122 547.847 884.939C529.292 869.132 515.187 837.497 521.625 813.384C534.212 766.247 570.248 725.894 592.137 682.489Z"/><path transform="scale(0.426667 0.426667)" d="M383.556 192.429C403.056 189.998 476.056 196.398 479.696 225.704C483.03 252.555 429.915 261.531 409.101 263.43C381.738 265.344 345.69 261.743 322.735 245.434C312.951 238.483 307.695 225.458 316.961 215.712C332.778 199.077 361.79 194.012 383.556 192.429Z"/></svg>