<?xml version="1.0" encoding="utf-8" ?><svg xmlns="http://www.w3.org/2000/svg" xmlns:xlink="http://www.w3.org/1999/xlink" width="512" height="512" viewBox="0 0 512 512"><path d="M251.096 8.11585C252.715 8.05295 254.335 8.02286 255.955 8.02562C282.219 7.99917 307.427 18.3629 326.078 36.8549C333.368 44.0907 342.638 56.0893 349.325 64.2121L386.308 109.078L396.183 121.082C397.994 123.288 400.207 126.25 402.232 128.189C405.276 128.844 408.553 129.2 411.65 129.67C416.375 130.403 421.088 131.205 425.789 132.077C429.791 132.827 433.776 133.667 437.74 134.595C444.422 136.152 446.615 137.04 453.414 136.287C461.659 135.486 472.441 141.753 475.46 149.519C479.355 159.538 483.825 170.264 487.205 180.424C497.273 210.748 502.869 242.377 503.817 274.315C504.328 291.707 506.222 295.04 490.111 304.139C492.838 313.622 495.264 323.221 497.937 332.722C499.472 338.181 500.848 343.683 501.845 349.269C505.823 371.379 504.317 394.128 497.458 415.52C496.114 419.675 494.569 423.761 492.83 427.767C489.535 435.273 486.504 439.978 486.021 448.501C485.654 454.299 486.791 460.095 489.322 465.325C492.214 471.225 495.123 474.11 495.293 481.351C495.478 487.27 493.232 493.006 489.077 497.226C482.552 503.928 474.837 505.018 466.093 502.991C460.403 501.672 454.567 500.369 448.856 499.139C439.389 497.056 429.724 495.999 420.03 495.985C411.948 495.992 402.598 496.848 394.5 497.456L364.234 499.501C330.223 501.916 296.154 503.419 262.063 504.01C246.671 504.336 230.557 503.692 215.163 503.078C188.464 501.961 161.78 500.492 135.118 498.674C122.616 497.883 108.158 496.311 95.7825 496.022C86.9954 495.822 78.2094 496.471 69.5469 497.96C60.6978 499.466 42.928 505.02 35.1412 503.705C29.1319 502.689 24.0217 499.364 20.5118 494.393C16.115 488.165 15.5487 479.784 18.6739 472.876C20.1584 469.595 22.2063 466.626 23.5608 463.263C25.3055 458.93 26.1504 454.288 26.044 449.618C25.8327 440.13 21.9675 434.559 18.4695 426.196C16.5238 421.523 14.8342 416.748 13.4081 411.891C5.87223 386.229 6.4945 360.78 13.4109 335.134L18.8073 315.408C19.6788 312.228 21.1575 307.345 21.6806 304.263L21.733 303.934C20.6231 303.378 19.5303 302.788 18.4562 302.165C12.4259 298.684 7.93831 294.895 8.0014 287.461C8.03741 283.217 8.15014 278.981 8.27483 274.743C9.34476 246.109 13.8865 217.71 21.8003 190.17C24.017 182.375 26.6672 174.7 29.2047 167.007C30.5177 163.026 32.0758 155.596 34.1926 152.312C42.2528 139.807 77.9206 133.468 91.8277 131.105C97.7703 130.096 103.831 129.514 109.718 128.23C112.185 125.688 114.93 122.138 117.219 119.345L128.951 105.07L163.335 63.3305C169.055 56.39 175.09 48.6914 180.972 41.9976C199.328 21.1075 223.518 9.90703 251.096 8.11585ZM474.939 309.576C470.112 310.684 465.314 311.89 460.484 312.987C443.392 316.868 426.089 318.865 408.679 320.692C390.656 322.617 372.592 324.135 354.501 325.245C273.333 330.37 191.887 329.077 110.922 321.379C91.3834 319.492 71.6648 317.299 52.4869 313.117C48.8216 312.318 40.4826 310.631 37.2745 309.37C36.5902 311.052 35.9637 313.096 35.5325 314.874C32.6275 326.854 28.3273 339.114 26.0905 351.186C21.7197 374.367 24.2212 398.319 33.287 420.096C35.0136 424.2 37.4304 428.797 38.909 432.808C43.3316 444.654 43.1462 457.729 38.3897 469.446C36.9108 473.051 34.9461 475.976 33.3616 479.441C31.0404 484.515 35.4834 488.755 40.637 487.655C57.067 484.148 73.1779 479.783 90.1292 479.881C98.9991 479.904 107.732 480.522 116.629 481.192L144.774 483.128C173.906 484.994 202.97 486.625 232.15 487.532C255.499 488.257 278.309 487.751 301.627 486.73C324.954 485.718 348.267 484.42 371.561 482.835L399.015 480.9C405.47 480.443 411.957 479.943 418.388 479.84C432.529 479.613 446.222 481.84 459.926 485.137C464.15 486.153 468.615 487.206 472.92 487.723C474.254 487.863 475.219 487.577 476.447 487.11C482.248 482.041 477.887 478.174 475.182 473.043C474.311 471.392 473.489 469.341 472.862 467.579C470.482 460.844 469.538 453.686 470.09 446.564C471.049 433.311 476.796 426.031 481.061 413.899C488.211 393.686 489.852 371.934 485.816 350.877C483.493 338.684 479.281 326.466 476.302 314.39C475.926 312.868 475.448 311.043 474.939 309.576ZM51.6992 296.598C62.2519 298.971 73.6682 300.687 84.3677 302.177C107.411 305.248 130.559 307.477 153.765 308.86C200.701 311.747 247.739 312.624 294.75 311.488C340.926 310.528 387.402 307.883 433.153 301.406C448.148 299.284 463.485 296.543 477.905 291.927C479.794 291.322 487.562 288.56 487.783 286.267C488.254 281.372 487.935 275.647 487.676 270.684C486.427 241.964 481.235 213.552 472.247 186.246C469.258 177.251 465.354 168.39 462.274 159.402C460.385 153.891 457.364 151.817 451.539 152.567L451.225 152.692C447.013 154.408 445.571 158.538 443.679 162.36L437.264 175.363C430.637 188.849 431.329 187.212 416.767 189.329C408.263 190.611 399.741 191.761 391.202 192.779C303.803 202.639 215.591 202.948 128.126 193.701C105.024 191.232 81.3679 188.214 59.0262 181.619C54.7668 180.361 46.9621 177.583 43.3295 175.25C41.1419 182.176 38.7845 189.02 36.8255 196.026C30.4351 218.547 26.4157 241.674 24.8329 265.03C24.419 271.069 23.7672 281.042 24.0807 287.085C30.6216 291.905 43.6361 294.921 51.6992 296.598ZM417.899 146.98C418.18 148.282 426.073 157.431 427.661 158.98C428.133 157.961 428.633 156.808 429.13 155.816C430.228 153.656 431.13 151.983 431.978 149.7C427.942 148.991 421.802 147.861 417.899 146.98ZM93.8474 172.862C111.236 175.555 128.703 177.712 146.224 179.333C183.415 182.873 220.768 184.427 258.125 183.988C295.917 184.303 333.698 182.55 371.298 178.739C382.124 177.671 392.93 176.411 403.711 174.961C408.318 174.351 413.701 173.745 418.236 172.966C409.579 162.86 400.966 152.122 392.495 141.829L348.211 88.0414L329.947 65.8544C321.885 56.0677 316.101 48.1089 305.769 40.4523C293.243 31.142 278.334 25.574 262.772 24.3944C260.048 24.169 257.314 24.0747 254.581 24.1116C231.027 24.8134 209.14 34.2963 193.451 52.1359C190.045 56.0078 186.81 60.054 183.533 64.0361L165.986 85.3412L117.856 143.757C110.029 153.25 101.844 163.606 93.8474 172.862ZM92.8805 147.306C80.4616 149.526 59.4575 153.36 48.9687 160.23L56.4461 163.877C63.005 166.576 68.7571 168.488 75.9028 169.462C77.8491 167.101 93.8036 148.178 93.9408 147.311C93.3878 147.167 93.4246 147.149 92.8805 147.306Z"/><path d="M351.41 216.075C355.455 215.878 366.776 215.785 370.558 216.206C376.957 216.881 382.817 220.099 386.819 225.138C390.809 230.145 392.583 236.563 391.732 242.908C390.854 249.761 387.419 255.235 382 259.429C382.793 263.364 384.771 269.584 385.932 273.639C387.822 280.234 389.665 287.171 391.675 293.691C387.891 295.24 380.38 297.112 376.19 298.257C375.19 294.515 374.153 290.784 373.081 287.062C371.067 279.613 368.466 271.73 366.702 264.282C364.538 264.061 362.468 264.247 360.038 263.975C359.89 274.529 360.013 285.458 360.012 296.038C354.734 296.142 349.273 296.068 343.98 296.078C344.134 290.539 344.011 284.344 344.012 278.767L343.993 244.803C343.99 239.153 343.986 233.472 343.992 227.823C343.998 221.625 344.241 217.267 351.41 216.075ZM360.01 247.975C364.48 247.979 369.897 248.773 373.299 245.82C374.826 244.185 376.242 241.93 375.986 239.665C374.892 229.982 365.603 232.818 360.08 231.976C359.921 237.272 360.015 242.668 360.01 247.975Z"/><path d="M303.405 216.076C308.706 215.797 315.276 215.836 320.573 216.147C328.069 216.588 328.088 223.941 328.719 229.75L330.086 242.231L333.937 276.96C334.583 282.792 335.143 289.298 335.967 295.055C331.022 296.22 325.049 296.087 319.999 297.137C319.738 293.546 319.22 289.635 318.828 286.021C318.453 282.569 318.135 278.422 317.541 275.057L317.358 272.206C313.819 272.028 310.3 272.28 306.668 272.08C306.091 279.949 304.783 288.922 303.937 296.888C298.621 296.462 293.29 295.709 287.973 295.239C288.824 289.738 289.414 282.647 290.039 277.017L293.952 241.722C294.653 235.404 295.241 229.015 296.177 222.733C296.804 218.52 299.527 216.729 303.405 216.076ZM308.342 255.864C309.918 255.927 311.485 256.003 313.062 255.997L315.506 255.976C314.181 248.423 314.191 240.288 312.823 232.707C312.74 232.249 311.803 231.912 311.441 231.776C309.8 237.726 309.893 249.287 308.342 255.864Z"/><path d="M254.13 216.095C254.67 216.062 255.21 216.045 255.751 216.043C262.287 215.978 268.568 218.573 273.153 223.231C280.549 230.73 280.052 238.416 280.016 248.04C274.734 248.134 269.27 248.067 263.975 248.071C264.039 244.721 264.419 240.766 263.404 237.526C262.809 235.624 261.646 233.942 259.834 233.03C257.976 232.095 255.208 231.905 253.241 232.562C251.314 233.204 249.596 234.817 248.767 236.664C247.531 239.42 247.729 267.131 248.088 271.614C248.197 272.977 248.394 274.589 248.963 275.835C249.714 277.48 251.507 278.748 253.159 279.357C255.179 280.102 257.475 280.089 259.432 279.15C262.282 277.782 263.278 274.995 264.183 272.201C261.446 272.118 258.708 272.077 255.97 272.079C256.14 267.017 256.003 261.144 256.047 256.011L262.125 255.992C266.244 255.958 272.939 255.277 276.539 257.491C280.689 260.135 279.744 264.509 280.053 268.394C281.079 281.267 273.117 293.86 259.51 295.777C253.072 296.717 246.527 295.008 241.37 291.041C236.398 287.277 233.129 281.687 232.287 275.508C231.85 272.127 231.94 262.337 232.017 258.567C232.143 252.435 231.463 240.06 232.712 234.454C233.51 230.956 235.077 227.681 237.3 224.864C241.671 219.303 247.272 216.901 254.13 216.095Z"/><path d="M176.11 216.013C181.406 215.964 186.702 215.977 191.997 216.054L192.008 255.052C192.007 261.066 191.793 267.777 192.289 273.734C192.391 274.958 193.226 276.371 194.055 277.287C195.514 278.877 197.551 279.813 199.707 279.884C201.883 279.994 204.002 279.164 205.524 277.606C206.698 276.423 207.676 274.52 207.798 272.868C208.231 267.023 208.003 260.867 207.999 255.006L208.048 216.008C213.365 215.963 218.682 215.979 223.998 216.054L224.02 232.125L224.029 258.592C224.03 263.242 224.063 267.872 223.948 272.523C223.616 286.081 212.192 296.771 198.553 295.966C192.19 295.592 186.237 292.701 182.011 287.93C179.281 284.874 177.409 281.15 176.585 277.137C175.795 273.267 175.988 268.308 175.993 264.261L176.016 248.786L175.998 228.363C175.994 224.517 175.873 219.804 176.11 216.013Z"/><path d="M142.435 216.089C154.288 215.587 164.701 222.957 167.341 234.762C167.718 236.448 167.893 238.278 168.101 239.998C162.831 240.158 157.296 240.066 152.006 240.055C150.123 227.885 134.739 230.79 136.16 241.494C137.088 248.478 145.261 247.63 150.33 248.97C153.448 249.797 156.366 251.25 158.905 253.241C163.932 257.221 167.14 263.062 167.802 269.441C168.487 275.819 166.578 282.205 162.505 287.161C158.127 292.51 152.35 295.313 145.549 295.963C136.119 296.086 128.484 292.537 123.405 284.323C120.87 280.224 120.38 276.729 119.984 272.04C124.919 271.869 130.915 271.977 135.838 272.07C136.278 274.405 136.874 276.229 138.708 277.873C140.352 279.331 142.523 280.05 144.713 279.861C146.902 279.69 148.918 278.605 150.265 276.87C151.439 275.345 152.292 272.405 151.861 270.606C150.053 263.061 143.016 264.487 137.628 263.076C134.548 262.267 131.665 260.838 129.157 258.875C124.229 255 121.024 249.342 120.234 243.123C119.399 236.594 121.252 230.005 125.367 224.867C129.893 219.193 135.407 216.869 142.435 216.089Z"/><path d="M344.109 128.012C349.406 127.961 354.703 127.974 359.999 128.052C359.988 131.842 360.323 140.748 359.893 144.025C354.839 144.238 349.069 144.098 343.968 144.074C344.109 138.857 343.775 133.139 344.109 128.012Z"/><path d="M168.109 136.012C173.405 135.96 178.702 135.974 183.998 136.053C183.992 139.817 184.32 148.775 183.893 152.024C178.776 152.237 173.133 152.082 167.969 152.083C168.116 146.857 167.774 141.157 168.109 136.012Z"/><path d="M296.109 128.012C301.405 127.96 306.702 127.974 311.998 128.053C311.993 131.817 312.319 140.773 311.893 144.024C306.767 144.237 301.143 144.078 295.969 144.083C296.115 138.858 295.774 133.155 296.109 128.012Z"/><path d="M328.109 152.011C333.407 151.966 338.705 151.979 344.002 152.048C343.991 154.257 344.361 166.971 343.698 168.026C338.683 168.241 333.042 168.08 327.971 168.08C328.094 162.885 327.778 157.106 328.109 152.011Z"/><path d="M176.113 88.015C181.408 87.9616 186.703 87.9742 191.998 88.0527C191.992 91.8207 192.32 100.769 191.893 104.024C186.765 104.236 181.146 104.078 175.97 104.083C176.101 98.8459 175.79 93.1724 176.113 88.015Z"/><path d="M368.11 152.012C373.407 151.964 378.704 151.977 384.001 152.049C384.055 157.38 384.048 162.712 383.981 168.043C378.818 168.204 373.166 168.091 367.97 168.076C368.106 162.869 367.774 157.127 368.11 152.012Z"/><path d="M224.107 40.0107C229.405 39.9642 234.703 39.9781 240 40.0524C239.987 43.8443 240.324 52.7452 239.892 56.0234C234.767 56.2366 229.144 56.0776 223.97 56.0832C224.068 50.9433 223.807 45.0533 224.107 40.0107Z"/><path d="M192.111 160.012C197.406 159.96 202.703 159.974 207.998 160.053C207.993 163.787 208.318 172.81 207.894 176.02C202.817 176.244 197.111 176.074 191.977 176.076C192.083 170.916 191.777 165.066 192.111 160.012Z"/><path d="M224.109 160.012C229.406 159.96 234.703 159.973 239.999 160.053C240.049 165.384 240.045 170.715 239.989 176.046C234.789 176.21 229.205 176.069 223.969 176.076C224.14 170.84 223.769 165.19 224.109 160.012Z"/><path d="M136.108 152.012C141.404 151.96 146.702 151.974 151.998 152.053C152.054 157.383 152.048 162.713 151.981 168.043C146.823 168.201 141.157 168.093 135.971 168.071C136.061 162.982 135.798 156.989 136.108 152.012Z"/></svg>